PathFileType	4	(X/Y/Z)	SUBJ94_3_walk_RCNL2025.trc
DataRate	CameraRate	NumFrames	NumMarkers	Units	OrigDataRate	OrigDataStartFrame	OrigNumFrames
100	100	7	25	mm	100	231	368
Frame#	Time	R_Shoulder			L_Shoulder			C7			J_Notch			R_Elbow			L_Elbow			R_Wrist			L_Wrist			R_Asis			L_Asis			Sacral			Thoracic			Sternum			R_Thigh_Lateral			R_Knee_Lateral			R_Shank_Lateral			R_Ankle_Lateral			R_Heel			R_Toe			L_Thigh_Lateral			L_Knee_Lateral			L_Shank_Lateral			L_Ankle_Lateral			L_Heel			L_Toe		
		X1	Y1	Z1	X2	Y2	Z2	X3	Y3	Z3	X4	Y4	Z4	X5	Y5	Z5	X6	Y6	Z6	X7	Y7	Z7	X8	Y8	Z8	X9	Y9	Z9	X10	Y10	Z10	X11	Y11	Z11	X12	Y12	Z12	X13	Y13	Z13	X14	Y14	Z14	X15	Y15	Z15	X16	Y16	Z16	X17	Y17	Z17	X18	Y18	Z18	X19	Y19	Z19	X20	Y20	Z20	X21	Y21	Z21	X22	Y22	Z22	X23	Y23	Z23	X24	Y24	Z24	X25	Y25	Z25
231	2.30000000	-32.420460	1259.560669	475.525726	-64.262611	1265.994141	97.212944	-109.458092	1350.172241	295.117706	-0.163683	1254.318970	280.013153	-28.852245	982.357605	570.694885	-167.611908	995.129089	45.531845	100.900135	798.089172	562.894226	-97.471989	775.628143	8.811010	-3.962716	877.740601	405.570618	-0.264092	871.554688	179.808655	-191.996597	935.529907	277.163269	-181.680099	1150.271240	290.294403	28.924786	1061.022339	286.521118	-93.637489	534.394775	465.891602	-109.169334	440.576416	407.108246	-132.274643	254.977539	438.632263	-156.233673	54.034962	353.522339	-202.549911	54.855171	307.465668	-24.127468	36.132069	318.785858	50.117577	548.783875	87.834930	75.703499	460.112946	142.532303	2.912926	300.909485	88.059494	-99.280273	127.757736	193.486984	-133.071075	131.098022	248.039429	6.400335	64.499596	202.957123
232	2.31000000	-21.129271	1259.148315	475.322021	-54.112759	1264.963623	97.188042	-98.602730	1349.460938	295.159698	10.562369	1253.402100	279.958954	-13.328602	982.285583	571.018494	-159.441498	994.903381	45.796185	121.852222	801.952423	560.103058	-91.248863	775.114807	8.041781	6.251166	876.796570	406.414368	10.669984	871.028259	180.735443	-181.448013	934.590576	277.383942	-171.046036	1149.642456	290.694244	39.367416	1060.075928	286.789948	-88.169342	534.151428	466.251923	-105.787712	440.623016	407.301788	-130.956314	255.281509	438.556915	-156.123672	54.409130	353.133545	-202.231354	55.551247	306.939667	-24.045099	36.052658	318.776886	63.732899	549.213440	88.736633	90.883560	460.930542	143.531830	27.416609	296.910370	88.693390	-63.646168	118.554291	194.071350	-97.375244	119.806709	248.835205	45.774239	62.364342	202.994553
233	2.32000000	-9.817659	1258.564819	475.082336	-43.927368	1263.766846	97.143929	-87.726723	1348.591553	295.160217	21.312517	1252.300781	279.904144	2.159487	982.117676	571.267822	-151.188965	994.504883	46.038532	142.507492	805.816498	557.203857	-84.704777	774.523743	7.300319	16.445448	875.762146	407.233765	21.691755	870.289368	181.634216	-170.866165	933.414612	277.438721	-160.398682	1148.860229	291.017944	49.824017	1058.931274	287.077301	-82.503723	533.860901	466.582428	-102.144661	440.679565	407.463379	-129.485962	255.612762	438.463165	-156.004745	54.830261	352.711395	-201.900635	56.317856	306.370819	-23.962763	35.977348	318.763550	76.655029	549.072876	89.579895	105.262573	461.238159	144.476883	51.409859	292.977936	89.177864	-27.434608	109.818062	194.484940	-60.998032	108.972038	249.436020	85.275978	60.968124	202.828354
234	2.33000000	1.521052	1257.828369	474.801666	-33.692188	1262.424683	97.075638	-76.822891	1347.581665	295.115479	32.097214	1251.034424	279.843475	17.606264	981.867554	571.441589	-142.826675	993.944092	46.263168	162.832344	809.663452	554.216675	-77.830923	773.848389	6.586456	26.632402	874.656677	408.023163	32.808731	869.363464	182.492218	-160.239120	932.023132	277.331543	-149.725952	1147.940796	291.261292	60.306221	1057.606567	287.372650	-76.627342	533.527771	466.882538	-98.205307	440.740601	407.594482	-127.836563	255.966507	438.354095	-155.872589	55.304695	352.263519	-201.561218	57.163166	305.770508	-23.876106	35.907215	318.751251	88.891144	548.367676	90.356575	118.882889	461.045074	145.368637	74.830238	289.209045	89.514954	9.142694	101.727768	194.718674	-24.171194	98.783585	249.820618	124.697411	60.424648	202.529114
235	2.34000000	12.891141	1256.960449	474.474823	-23.393175	1260.961060	96.977005	-65.885071	1346.451904	295.020844	42.926277	1249.626221	279.769989	33.000553	981.550720	571.538635	-134.327255	993.234924	46.472332	182.793762	813.475128	551.162689	-70.619602	773.086365	5.899922	36.826630	873.501221	408.777557	44.028282	868.279663	183.298279	-149.553635	930.443115	277.068390	-139.015930	1146.902222	291.420105	70.826408	1056.125122	287.663757	-70.524467	533.159851	467.153961	-93.934296	440.800385	407.698700	-125.975609	256.337921	438.235474	-155.722107	55.839794	351.803192	-201.217026	58.096977	305.157715	-23.779051	35.843582	318.746033	100.470833	547.123779	91.059799	131.802719	460.376465	146.210739	97.627151	285.681885	89.716408	45.816917	94.428246	194.776367	12.810559	89.398293	249.981171	163.777588	60.797581	202.177765
236	2.35000000	24.294575	1255.984863	474.096741	-13.016695	1259.402832	96.840919	-54.908203	1345.224854	294.871124	53.808773	1248.103638	279.675476	48.325539	981.183716	571.558289	-125.664017	992.394348	46.666187	202.359276	817.233337	548.064178	-63.063910	772.239929	5.240393	47.045109	872.317627	409.492676	55.357788	867.069702	184.043167	-138.795197	928.706421	276.657257	-128.256775	1145.764648	291.490387	81.397888	1054.515381	287.937256	-64.176811	532.767639	467.400665	-89.295761	440.852966	407.782104	-123.866615	256.722443	438.116364	-155.547409	56.443981	351.349457	-200.871735	59.131287	304.558838	-23.664169	35.787815	318.754120	111.448288	545.388489	91.685173	144.094620	459.272736	147.009094	119.760063	282.453796	89.803703	82.264679	88.023247	194.675949	49.594479	80.933899	249.925690	202.204971	62.092541	201.859009
237	2.36000000	35.731178	1254.928101	473.662689	-2.549735	1257.778442	96.659561	-43.888268	1343.924561	294.660614	64.752922	1246.497437	279.550781	63.558861	980.783875	571.500549	-116.811462	991.441895	46.842918	221.497032	820.919678	544.944275	-55.157471	771.315125	4.607495	57.307117	871.128113	410.164703	66.804649	865.767334	184.719818	-127.948349	926.849365	276.108093	-117.437012	1144.548950	291.468445	92.035004	1052.810669	288.179138	-57.563564	532.363037	467.628601	-84.253189	440.892212	407.853394	-121.470871	257.116486	438.008942	-155.341583	57.126980	350.926575	-200.527740	60.281033	304.006927	-23.523327	35.740814	318.781281	121.902740	543.229065	92.232086	155.842896	457.787933	147.771332	141.195038	279.560242	89.807060	118.115608	82.570168	194.449219	85.779999	73.464394	249.678696	239.625565	64.252121	201.655045
